<svg xmlns="http://www.w3.org/2000/svg" focusable="false" viewBox="0 0 36 32"><circle cx="15.4" cy="19.2" r="6.8" class="svg-fill-brightest"/><path fill="#fff" d="M25.3 21.5h-7.6l3.8-6.7 3.8-6.6 3.9 6.6 3.8 6.7z" class="svg-stroke svg-stroke-accent"/><path d="M15.5 13.4c3.4 0 6.1 2.7 6.1 6.1s-2.7 6.1-6.1 6.1-6.1-2.7-6.1-6.1 2.7-6.1 6.1-6.1m0-1.4C11.4 12 8 15.4 8 19.5s3.4 7.5 7.5 7.5 7.5-3.4 7.5-7.5-3.4-7.5-7.5-7.5z" class="svg-fill-lilac"/><path d="M3.7 6.7h10.6v10.6H3.7z" class="svg-fill-gradient-accent-white-top"/><path d="M13.6 7.4v9.2H4.4V7.4h9.2M15 6H3v12h12V6z" class="svg-fill-gatsby"/></svg>